<?xml version="1.0" standalone="no"?>
<!DOCTYPE svg PUBLIC "-//W3C//DTD SVG 20010904//EN"
 "http://www.w3.org/TR/2001/REC-SVG-20010904/DTD/svg10.dtd">
<svg version="1.0" xmlns="http://www.w3.org/2000/svg"
 width="1024.000000pt" height="1024.000000pt" viewBox="0 0 1024.000000 1024.000000"
 preserveAspectRatio="xMidYMid meet">

<g transform="translate(0.000000,1024.000000) scale(0.100000,-0.100000)"
fill="#000000" stroke="none">
<path d="M4765 8065 c-5 -2 -22 -6 -37 -9 -15 -3 -40 -23 -55 -43 l-28 -36 -5
-246 -5 -245 -75 -16 c-272 -60 -552 -205 -733 -380 -150 -143 -238 -281 -306
-473 -80 -227 -77 -571 7 -802 45 -122 55 -144 111 -234 235 -380 636 -637
1416 -911 253 -88 375 -149 486 -242 103 -85 132 -171 110 -319 -22 -141 -90
-233 -219 -291 -94 -43 -178 -58 -327 -58 -186 0 -313 32 -490 122 -147 74
-264 158 -449 321 -107 94 -167 131 -199 123 -44 -11 -106 -62 -289 -235 -315
-301 -406 -394 -414 -425 -11 -45 23 -96 149 -227 199 -205 352 -323 602 -461
162 -90 414 -192 541 -218 32 -7 64 -18 71 -25 10 -11 13 -67 13 -250 0 -263
5 -290 62 -325 31 -19 50 -20 376 -20 385 0 386 0 422 70 18 36 20 59 20 270
0 172 3 235 13 244 6 6 62 22 122 35 61 13 126 30 145 38 19 8 67 26 105 40
92 33 261 120 355 182 298 195 536 524 609 841 37 158 44 243 36 414 -4 89 -7
176 -8 194 0 17 -3 32 -7 32 -3 0 -12 29 -19 64 -16 82 -82 229 -146 326 -132
200 -379 396 -667 529 -194 90 -343 147 -733 280 -301 103 -405 146 -492 204
-123 81 -161 146 -161 272 0 89 20 144 71 195 84 85 231 130 420 130 123 0
209 -17 323 -64 120 -49 207 -104 358 -224 197 -158 210 -164 284 -114 67 45
556 570 586 629 32 63 13 116 -71 205 -225 236 -667 476 -1010 547 -50 10 -97
22 -102 26 -7 4 -11 82 -11 227 0 249 -4 264 -78 310 -36 23 -42 23 -352 25
-173 1 -319 0 -325 -2z"/>
</g>
</svg>
